<?xml version="1.0" encoding="utf-8"?>
<!-- Generator: Adobe Illustrator 20.1.0, SVG Export Plug-In . SVG Version: 6.00 Build 0)  -->
<svg version="1.1" id="property-header" xmlns="http://www.w3.org/2000/svg" xmlns:xlink="http://www.w3.org/1999/xlink" x="0px"
	 y="0px" width="179.2" height="98" style="enable-background:new 0 0 179.2 98;" xml:space="preserve">
<style type="text/css">
	.st0{fill:none;stroke:#666666;stroke-width:0.75;stroke-linecap:round;stroke-linejoin:round;stroke-miterlimit:10;}
</style>
<path class="st0" d="M83.6,92"/>
<path class="st0" d="M87.1,89.7"/>
<path class="st0" d="M213.4,33.7"/>
<g>
	<path class="st0" d="M14.6,119"/>
	<path class="st0" d="M0,94.7"/>
	<path class="st0" d="M-10.8,103.5"/>
</g>
<path class="st0" d="M31.7,81.6"/>
<g>
	<g>
		<path class="st0" d="M122.8,97.3"/>
		<polyline class="st0" points="56.7,73 56.7,63.4 84.7,42.3 84.7,42.3 84.7,42.3 84.7,42.3 84.7,42.3 119.7,60.4 119.7,89 		"/>
		<path class="st0" d="M87.6,97.3"/>
		<line class="st0" x1="84.7" y1="43" x2="84.7" y2="74"/>
		<path class="st0" d="M61.6,63.4"/>
	</g>
	<g>
		<polygon class="st0" points="88.7,48.5 97.7,53.4 97.7,60 88.7,55.4 		"/>
		<polyline class="st0" points="90.1,51.3 95.7,54.2 95.7,57 		"/>
	</g>
	<g>
		<polygon class="st0" points="88.7,58.5 97.7,63.4 97.7,70 88.7,65.4 		"/>
		<polyline class="st0" points="90.1,61.3 95.7,64.2 95.7,67 		"/>
	</g>
	<g>
		<polygon class="st0" points="88.7,68.5 97.7,73.4 97.7,80 88.7,75.4 		"/>
		<polyline class="st0" points="90.1,71.3 95.7,74.2 95.7,77 		"/>
	</g>
	<path class="st0" d="M84.7,47c-4.2,3.2-8.3,6.4-12.5,9.6"/>
	<path class="st0" d="M84.7,51.8c-3.3,2.5-6.5,5-9.8,7.5"/>
	<path class="st0" d="M84.7,56.6c-2.4,1.8-4.7,3.6-7.1,5.4"/>
	<path class="st0" d="M84.7,61.4c-1.6,1.3-3.2,2.5-4.9,3.7"/>
	<path class="st0" d="M84.7,66.1c-1.1,0.8-2.2,1.7-3.2,2.5"/>
</g>
<g>
	<g>
		<path class="st0" d="M66.2,91.3"/>
		<polyline class="st0" points="12.7,91 12.7,85.7 35.4,69.1 35.4,69.1 35.4,69.1 35.4,69.1 35.4,69.1 63.7,83.4 63.7,90 		"/>
		<path class="st0" d="M15.9,98"/>
		<path class="st0" d="M39.4,91.3"/>
		<line class="st0" x1="34.7" y1="70" x2="34.7" y2="90"/>
		<path class="st0" d="M18.8,85.7"/>
	</g>
	<g>
		<polygon class="st0" points="50.2,79.9 59.2,84.8 59.2,91.4 50.2,86.8 		"/>
		<polyline class="st0" points="51.6,82.7 57.2,85.6 57.2,88.4 		"/>
	</g>
	<g>
		<polygon class="st0" points="37.8,73.8 46.8,78.7 46.8,85.3 37.8,80.7 		"/>
		<polyline class="st0" points="39.2,76.6 44.8,79.5 44.8,82.3 		"/>
	</g>
	<g>
		<polyline class="st0" points="37.8,90.7 37.8,83.8 46.8,88.7 46.8,92.3 		"/>
		<polyline class="st0" points="39.2,86.6 44.8,89.5 44.8,92.3 		"/>
	</g>
	<path class="st0" d="M34.4,74c-4.2,3.2-8.3,6.4-12.5,9.6"/>
	<path class="st0" d="M34.4,77.8c-1.8,1.3-3.7,2.9-7,5.4"/>
	<path class="st0" d="M34.6,81.6c-1.2,0.9-2.4,1.9-4.1,3.2"/>
	<path class="st0" d="M34.6,86c-0.7,0.6-1.5,1.2-2.4,1.9"/>
</g>
<g>
	<g>
		<polyline class="st0" points="111.7,46 111.7,42.2 140.2,21.2 140.2,21.2 140.2,21.2 140.2,21.2 140.2,21.2 175.7,39.3 175.7,88
					"/>
		<line class="st0" x1="140.2" y1="21.6" x2="140.2" y2="71.6"/>
		<path class="st0" d="M117.4,42.2"/>
	</g>
	<g>
		<polygon class="st0" points="145.7,29.5 154.7,34.4 154.7,41 145.7,36.4 		"/>
		<polyline class="st0" points="147.1,32.3 152.7,35.2 152.7,38 		"/>
	</g>
	<g>
		<polygon class="st0" points="145.7,39.5 154.7,44.4 154.7,51 145.7,46.4 		"/>
		<polyline class="st0" points="147.1,42.3 152.7,45.2 152.7,48 		"/>
	</g>
	<g>
		<polygon class="st0" points="145.7,49.5 154.7,54.4 154.7,61 145.7,56.4 		"/>
		<polyline class="st0" points="147.1,52.3 152.7,55.2 152.7,58 		"/>
	</g>
	<g>
		<polygon class="st0" points="145.7,59.5 154.7,64.4 154.7,71 145.7,66.4 		"/>
		<polyline class="st0" points="147.1,62.3 152.7,65.2 152.7,68 		"/>
	</g>
	<g>
		<polygon class="st0" points="158.7,35.5 167.7,40.4 167.7,47 158.7,42.4 		"/>
		<polyline class="st0" points="160.1,38.3 165.7,41.2 165.7,44 		"/>
	</g>
	<g>
		<polygon class="st0" points="158.7,45.5 167.7,50.4 167.7,57 158.7,52.4 		"/>
		<polyline class="st0" points="160.1,48.3 165.7,51.2 165.7,54 		"/>
	</g>
	<g>
		<polygon class="st0" points="158.7,55.5 167.7,60.4 167.7,67 158.7,62.4 		"/>
		<polyline class="st0" points="160.1,58.3 165.7,61.2 165.7,64 		"/>
	</g>
	<g>
		<polygon class="st0" points="158.7,65.5 167.7,70.4 167.7,77 158.7,72.4 		"/>
		<polyline class="st0" points="160.1,68.3 165.7,71.2 165.7,74 		"/>
	</g>
	<path class="st0" d="M139.7,26.5c-4.2,3.2-8.3,6.4-12.5,9.6"/>
	<path class="st0" d="M139.7,32.2c-3.3,2.5-6.5,5-9.8,7.5"/>
	<path class="st0" d="M139.7,37.9c-2.7,2.1-5.4,4.2-8.1,6.2"/>
	<path class="st0" d="M139.7,43.6c-2.3,1.8-4.7,3.6-7,5.4"/>
	<path class="st0" d="M139.7,49.3c-2,1.5-4,3-5.9,4.6"/>
	<path class="st0" d="M139.7,55c-1.4,1.1-2.9,2.2-4.3,3.3"/>
	<path class="st0" d="M139.7,60.4c-1.1,0.8-2.2,1.7-3.2,2.5"/>
</g>
</svg>
